<svg width="218" height="141" viewBox="0 0 218 141" fill="none" xmlns="http://www.w3.org/2000/svg">
<rect x="0.5" y="0.290039" width="217" height="140" rx="70" fill="#FFD140"/>
<g clip-path="url(#clip0_1_1059)">
<g clip-path="url(#clip1_1_1059)">
<mask id="mask0_1_1059" style="mask-type:luminance" maskUnits="userSpaceOnUse" x="42" y="52" width="134" height="36">
<path d="M42.6001 52.874H175.4V87.7152H42.6001V52.874Z" fill="white"/>
</mask>
<g mask="url(#mask0_1_1059)">
<path d="M91.0481 73.9902C92.9772 73.9886 94.8422 73.3048 96.3067 72.0622C97.7711 70.8196 98.7386 69.0999 99.0345 67.2135C99.6585 63.2813 96.5537 59.8487 92.1545 59.8487H85.0641C84.9311 59.847 84.802 59.8929 84.7005 59.978C84.5991 60.0631 84.5321 60.1817 84.5121 60.3118L81.3521 80.1604C81.3407 80.2329 81.3452 80.307 81.3655 80.3776C81.3857 80.4482 81.4211 80.5137 81.4693 80.5695C81.5174 80.6253 81.5772 80.6701 81.6446 80.7009C81.7119 80.7317 81.7851 80.7477 81.8593 80.7478H85.6113C85.744 80.7492 85.8727 80.703 85.9738 80.618C86.075 80.5329 86.1417 80.4146 86.1617 80.2847L87.0913 74.4541C87.1112 74.324 87.1779 74.2054 87.2792 74.1201C87.3805 74.0348 87.5095 73.9887 87.6425 73.9902H91.0481ZM94.1881 67.0346C93.9561 68.4881 92.8209 69.5592 90.6481 69.5592H87.8689L88.7113 64.2709H91.4401C93.6881 64.2756 94.4185 65.5874 94.1881 67.0386V67.0346ZM115.29 66.1004H111.728C111.595 66.0989 111.466 66.1449 111.365 66.23C111.263 66.3151 111.196 66.4335 111.176 66.5636L111.061 67.2951C111.061 67.2951 108.295 64.3065 103.401 66.3253C100.593 67.4819 99.2457 69.8719 98.6729 71.6215C98.6729 71.6215 96.8513 76.9399 100.969 79.8683C100.969 79.8683 104.786 82.6835 109.085 79.6941L109.01 80.1604C108.999 80.233 109.003 80.3071 109.024 80.3778C109.044 80.4484 109.079 80.5139 109.127 80.5698C109.175 80.6256 109.235 80.6704 109.303 80.7012C109.37 80.7319 109.443 80.7478 109.518 80.7478H113.078C113.211 80.7495 113.341 80.7036 113.442 80.6185C113.543 80.5334 113.61 80.4148 113.63 80.2847L115.797 66.6878C115.808 66.6153 115.804 66.5412 115.783 66.4706C115.763 66.4 115.728 66.3346 115.68 66.2788C115.631 66.223 115.572 66.1782 115.504 66.1474C115.437 66.1166 115.365 66.1006 115.29 66.1004ZM110.053 73.6149C109.913 74.5623 109.432 75.4275 108.697 76.05C107.962 76.6725 107.023 77.0101 106.056 77.0001C105.677 77.0044 105.3 76.9496 104.938 76.8378C103.402 76.3501 102.526 74.8887 102.778 73.3054C102.918 72.3554 103.402 71.4881 104.14 70.8651C104.878 70.2421 105.82 69.906 106.79 69.9194C107.169 69.9155 107.546 69.9709 107.908 70.0825C109.438 70.5686 110.309 72.03 110.057 73.6149H110.053Z" fill="#003087"/>
<path d="M142.338 73.9902C144.268 73.9896 146.134 73.3064 147.6 72.0637C149.066 70.8211 150.035 69.1008 150.331 67.2135C150.955 63.2813 147.851 59.8487 143.45 59.8487H136.362C136.229 59.8473 136.1 59.8934 135.999 59.9785C135.898 60.0636 135.831 60.1819 135.811 60.3118L132.641 80.166C132.623 80.2753 132.642 80.3875 132.694 80.4853C132.747 80.583 132.831 80.6608 132.933 80.7067C133 80.7378 133.074 80.754 133.148 80.7542H136.901C137.034 80.7555 137.163 80.7093 137.264 80.624C137.365 80.5388 137.432 80.4203 137.452 80.2902L138.383 74.4596C138.402 74.3294 138.469 74.2107 138.57 74.1254C138.672 74.0401 138.801 73.9941 138.934 73.9957L142.338 73.9902ZM145.478 67.0346C145.246 68.4881 144.111 69.5592 141.937 69.5592H139.159L140.002 64.2709H142.731C144.977 64.2756 145.709 65.5874 145.478 67.0385V67.0346ZM166.579 66.1004H163.021C162.888 66.0991 162.759 66.1452 162.658 66.2302C162.557 66.3153 162.49 66.4336 162.47 66.5635L162.353 67.295C162.353 67.295 159.588 64.3065 154.694 66.3252C151.887 67.4819 150.539 69.8719 149.965 71.6215C149.965 71.6215 148.144 76.9399 152.261 79.8683C152.261 79.8683 156.079 82.6835 160.378 79.6941L160.303 80.1604C160.285 80.2698 160.304 80.382 160.357 80.4797C160.41 80.5775 160.493 80.6553 160.595 80.7011C160.663 80.7328 160.736 80.7486 160.811 80.7486H164.371C164.505 80.7506 164.634 80.7046 164.735 80.6193C164.837 80.5339 164.903 80.415 164.923 80.2847L167.09 66.6878C167.1 66.6151 167.095 66.5409 167.075 66.4702C167.055 66.3995 167.019 66.3339 166.971 66.2777C166.923 66.2214 166.863 66.1763 166.795 66.1457C166.728 66.115 166.654 66.0996 166.579 66.1004ZM161.343 73.6149C161.205 74.563 160.723 75.4291 159.988 76.052C159.253 76.6748 158.314 77.0118 157.346 77.0001C156.966 77.0045 156.589 76.9497 156.227 76.8378C154.69 76.3501 153.813 74.8887 154.065 73.3054C154.204 72.3579 154.686 71.4925 155.421 70.8698C156.156 70.2471 157.094 69.9095 158.062 69.9194C158.442 69.9155 158.819 69.9701 159.181 70.0825C160.727 70.5686 161.6 72.03 161.347 73.6149H161.343Z" fill="#0070E0"/>
<path d="M128.364 66.4351L124.071 73.6068L121.892 66.4882C121.858 66.3752 121.788 66.2762 121.692 66.206C121.596 66.1358 121.48 66.0982 121.361 66.0987H117.487C117.421 66.0974 117.354 66.1122 117.295 66.1418C117.235 66.1713 117.183 66.2148 117.144 66.2684C117.105 66.3221 117.08 66.3843 117.071 66.4497C117.061 66.5152 117.068 66.5819 117.091 66.6441L120.995 78.6347L117.464 84.2856C117.424 84.3478 117.402 84.4195 117.4 84.4932C117.398 84.5668 117.416 84.6396 117.452 84.704C117.488 84.7684 117.541 84.8219 117.606 84.8589C117.67 84.8959 117.743 84.915 117.818 84.9142H121.991C122.111 84.9148 122.228 84.8846 122.332 84.8266C122.436 84.7686 122.523 84.6847 122.584 84.5833L133.49 66.7296C133.529 66.6673 133.551 66.5957 133.552 66.5223C133.554 66.4488 133.535 66.3764 133.499 66.3124C133.462 66.2485 133.409 66.1955 133.345 66.159C133.28 66.1225 133.207 66.1038 133.133 66.105H128.961C128.841 66.1036 128.723 66.1334 128.618 66.1913C128.513 66.2492 128.426 66.3333 128.364 66.4351Z" fill="#003087"/>
<path d="M170.586 60.3059L167.416 80.1601C167.398 80.2695 167.417 80.3817 167.47 80.4794C167.522 80.5771 167.606 80.6549 167.708 80.7008C167.775 80.7325 167.849 80.7483 167.923 80.7483H171.675C171.808 80.7499 171.937 80.7039 172.038 80.6186C172.139 80.5333 172.206 80.4146 172.226 80.2844L175.396 60.4302C175.408 60.3577 175.404 60.2835 175.383 60.2128C175.363 60.1421 175.328 60.0766 175.279 60.0209C175.231 59.9652 175.171 59.9205 175.104 59.8897C175.036 59.859 174.963 59.843 174.889 59.8428H171.137C171.004 59.8415 170.875 59.8876 170.774 59.9726C170.673 60.0577 170.606 60.176 170.586 60.3059Z" fill="#0070E0"/>
<path d="M70.7169 68.9137C69.9121 73.4539 66.1689 76.8858 61.2569 76.8858H58.1385C57.5025 76.8858 56.8617 77.4684 56.7601 78.1129L55.3945 86.6906C55.3153 87.179 55.0841 87.3413 54.5841 87.3413H49.5681C49.0609 87.3413 48.9409 87.1735 49.0169 86.6787L49.5929 80.7467L43.5721 80.4388C43.0657 80.4388 42.8825 80.1656 42.9545 79.6653L47.0625 53.8887C47.1417 53.4002 47.4489 53.1904 47.9473 53.1904H58.3657C63.3809 53.1904 66.5537 56.5313 66.9417 60.8633C69.9257 62.8582 71.3209 65.5127 70.7177 68.9129L70.7169 68.9137Z" fill="#001C64"/>
<path d="M51.1193 71.142L49.5937 80.7473L48.6289 86.7735C48.6109 86.8896 48.6185 87.0083 48.6511 87.1213C48.6836 87.2343 48.7404 87.3391 48.8175 87.4285C48.8946 87.5179 48.9903 87.5898 49.098 87.6393C49.2057 87.6888 49.3229 87.7148 49.4417 87.7155H54.7393C54.9811 87.7153 55.2148 87.6297 55.3986 87.4741C55.5823 87.3185 55.704 87.1032 55.7417 86.8669L57.1361 78.111C57.1739 77.8748 57.2956 77.6597 57.4794 77.5043C57.6631 77.3489 57.8968 77.2634 58.1385 77.2632H61.2569C63.6331 77.2601 65.93 76.4171 67.7336 74.8862C69.5372 73.3552 70.7288 71.237 71.0937 68.9135C71.6337 65.5038 69.9001 62.3996 66.9329 60.8662C66.9261 61.2295 66.8941 61.5918 66.8369 61.9508C66.4707 64.2731 65.2786 66.3898 63.4753 67.9196C61.6721 69.4494 59.3761 70.2917 57.0009 70.2949H52.1209C51.8793 70.295 51.6458 70.3804 51.4622 70.5356C51.2786 70.6909 51.157 70.9059 51.1193 71.142Z" fill="#0070E0"/>
<path d="M49.5929 80.747H43.4241C43.3051 80.7464 43.1876 80.7205 43.0796 80.6709C42.9716 80.6213 42.8758 80.5493 42.7985 80.4597C42.7212 80.3702 42.6643 80.2652 42.6317 80.1519C42.5991 80.0386 42.5916 79.9197 42.6097 79.8033L46.7665 53.7227C46.8038 53.4863 46.9253 53.2709 47.1089 53.1154C47.2926 52.9598 47.5263 52.8742 47.7681 52.874H58.3601C63.3753 52.874 67.0217 56.4856 66.9361 60.8612C65.6012 60.1797 64.1188 59.83 62.6169 59.8423H53.7865C53.5447 59.8423 53.3108 59.9278 53.1269 60.0832C52.943 60.2386 52.8212 60.4538 52.7833 60.6902L51.1193 71.1417L49.5929 80.747Z" fill="#003087"/>
</g>
</g>
</g>
<defs>
<clipPath id="clip0_1_1059">
<rect width="136" height="38" fill="white" transform="translate(41 51.29)"/>
</clipPath>
<clipPath id="clip1_1_1059">
<rect width="136" height="38" fill="white" transform="translate(41 51.29)"/>
</clipPath>
</defs>
</svg>
