<svg width="218" height="141" viewBox="0 0 218 141" fill="none" xmlns="http://www.w3.org/2000/svg">
<rect x="0.5" y="0.290039" width="217" height="140" rx="70" fill="white"/>
<g clip-path="url(#clip0_1_1075)">
<g clip-path="url(#clip1_1_1075)">
<g clip-path="url(#clip2_1_1075)">
<mask id="mask0_1_1075" style="mask-type:luminance" maskUnits="userSpaceOnUse" x="41" y="46" width="136" height="48">
<path d="M176.5 46.79H41.5V93.79H176.5V46.79Z" fill="white"/>
</mask>
<g mask="url(#mask0_1_1075)">
<path d="M120.856 59.5625C120.856 63.0434 118.164 65.6084 114.861 65.6084C111.557 65.6084 108.865 63.0434 108.865 59.5625C108.865 56.0571 111.557 53.5166 114.861 53.5166C118.164 53.5166 120.856 56.0571 120.856 59.5625ZM118.232 59.5625C118.232 57.3873 116.672 55.899 114.861 55.899C113.05 55.899 111.49 57.3873 111.49 59.5625C111.49 61.7159 113.05 63.226 114.861 63.226C116.672 63.226 118.232 61.7132 118.232 59.5625Z" fill="#EA4335"/>
<path d="M133.79 59.5625C133.79 63.0434 131.099 65.6084 127.795 65.6084C124.491 65.6084 121.8 63.0434 121.8 59.5625C121.8 56.0598 124.491 53.5166 127.795 53.5166C131.099 53.5166 133.79 56.0571 133.79 59.5625ZM131.166 59.5625C131.166 57.3873 129.606 55.899 127.795 55.899C125.984 55.899 124.424 57.3873 124.424 59.5625C124.424 61.7159 125.984 63.226 127.795 63.226C129.606 63.226 131.166 61.7132 131.166 59.5625Z" fill="#FBBC05"/>
<path d="M146.186 53.8819V64.7361C146.186 69.201 143.583 71.0246 140.505 71.0246C137.609 71.0246 135.865 69.0648 135.208 67.462L137.493 66.4997C137.9 67.4838 138.897 68.645 140.503 68.645C142.472 68.645 143.693 67.4156 143.693 65.1014V64.2318H143.602C143.014 64.9651 141.882 65.6057 140.454 65.6057C137.466 65.6057 134.728 62.9725 134.728 59.5843C134.728 56.1716 137.466 53.5166 140.454 53.5166C141.88 53.5166 143.011 54.1572 143.602 54.8686H143.693V53.8846H146.186V53.8819ZM143.879 59.5843C143.879 57.4554 142.475 55.899 140.689 55.899C138.878 55.899 137.361 57.4554 137.361 59.5843C137.361 61.6914 138.878 63.226 140.689 63.226C142.475 63.226 143.879 61.6914 143.879 59.5843Z" fill="#4285F4"/>
<path d="M150.295 47.5205V65.2384H147.735V47.5205H150.295Z" fill="#34A853"/>
<path d="M160.27 61.5531L162.307 62.9269C161.65 63.911 160.065 65.6064 157.328 65.6064C153.932 65.6064 151.397 62.9515 151.397 59.5605C151.397 55.9652 153.954 53.5146 157.034 53.5146C160.135 53.5146 161.652 56.0115 162.148 57.3608L162.42 58.0477L154.431 61.395C155.042 62.608 155.994 63.2268 157.328 63.2268C158.664 63.2268 159.591 62.5617 160.27 61.5531ZM154 59.3779L159.34 57.1345C159.047 56.3795 158.163 55.8534 157.123 55.8534C155.789 55.8534 153.932 57.0446 154 59.3779Z" fill="#EA4335"/>
<path d="M99.1758 57.9906V55.4256H107.72C107.804 55.8727 107.847 56.4015 107.847 56.9739C107.847 58.8983 107.327 61.278 105.651 62.9734C104.021 64.6907 101.938 65.6066 99.1785 65.6066C94.0642 65.6066 89.7637 61.3925 89.7637 56.2188C89.7637 51.0452 94.0642 46.8311 99.1785 46.8311C102.008 46.8311 104.023 47.9541 105.538 49.4179L103.748 51.2278C102.663 50.1975 101.191 49.3961 99.1758 49.3961C95.4412 49.3961 92.5202 52.4408 92.5202 56.2188C92.5202 59.9968 95.4412 63.0416 99.1758 63.0416C101.598 63.0416 102.978 62.0576 103.862 61.1635C104.578 60.4384 105.05 59.4026 105.236 57.9879L99.1758 57.9906Z" fill="#4285F4"/>
<path d="M96.7762 75.1356L94.1449 82.4986H99.5136L96.8611 75.1356H96.7762ZM91.8743 88.8741H89.5825L95.6515 72.5596H98.007L104.076 88.8741H101.784L100.235 84.452H93.4446L91.8743 88.8741Z" fill="#747474"/>
<path d="M105.121 77.7117H107.115V79.2573H107.2C107.508 78.7152 107.991 78.2644 108.643 77.9049C109.306 77.5346 109.985 77.3467 110.68 77.3467C112.038 77.3467 113.078 77.7439 113.8 78.5274C114.532 79.3002 114.903 80.4111 114.903 81.8547V88.8742H112.824V82.0049C112.781 80.1749 111.874 79.2573 110.107 79.2573C109.285 79.2573 108.59 79.6007 108.028 80.2876C107.476 80.9638 107.2 81.7635 107.2 82.6919V88.8742H105.121V77.7117Z" fill="#747474"/>
<path d="M118.741 85.461C118.741 86.0084 118.964 86.4646 119.42 86.8349C119.871 87.1945 120.407 87.3715 121.033 87.3715C121.893 87.3715 122.667 87.0496 123.346 86.4056C124.036 85.7508 124.386 84.978 124.386 84.0872C123.733 83.572 122.826 83.3144 121.67 83.3144C120.832 83.3144 120.131 83.5237 119.569 83.9369C119.017 84.3394 118.741 84.8492 118.741 85.461ZM121.415 77.3467C122.943 77.3467 124.142 77.7653 125.023 78.5918C125.914 79.4236 126.359 80.5613 126.359 82.0049V88.8742H124.386V87.3286H124.301C123.436 88.6059 122.291 89.2391 120.863 89.2391C119.643 89.2391 118.625 88.8742 117.808 88.1443C117.001 87.4145 116.598 86.5075 116.598 85.4181C116.598 84.2589 117.028 83.3466 117.893 82.6704C118.752 81.9835 119.909 81.64 121.352 81.64C122.582 81.64 123.59 81.8654 124.386 82.3055V81.8332C124.386 81.1034 124.094 80.4916 123.516 79.9871C122.948 79.4719 122.285 79.2143 121.521 79.2143C120.359 79.2143 119.447 79.708 118.784 80.6955L116.959 79.5363C117.962 78.0766 119.447 77.3467 121.415 77.3467Z" fill="#747474"/>
<path d="M130.698 72.5596V88.8741H128.618V72.5596H130.698Z" fill="#747474"/>
<path d="M142.923 77.7119L136.005 93.7902H133.883L136.451 88.166L131.889 77.7119H134.138L137.427 85.7403H137.47L140.674 77.7119H142.923Z" fill="#747474"/>
<path d="M148.619 89.0453C147.728 89.0453 146.986 88.7663 146.391 88.2081C145.797 87.65 145.489 86.8719 145.479 85.8683V79.6216H143.527V77.7111H145.479V74.2979H147.537V77.7111H150.253V79.6216H147.537V85.1814C147.537 85.9273 147.675 86.4372 147.962 86.7055C148.259 86.9631 148.582 87.0919 148.938 87.0919C149.108 87.0919 149.267 87.0812 149.426 87.049C149.58 87.006 149.728 86.9577 149.871 86.8987L150.508 88.7663C149.967 88.9487 149.341 89.0453 148.619 89.0453Z" fill="#747474"/>
<path d="M154.789 73.8688C154.789 74.2713 154.64 74.6202 154.343 74.9207C154.057 75.2105 153.717 75.35 153.325 75.35C152.911 75.35 152.566 75.2105 152.285 74.9207C151.999 74.6202 151.861 74.2713 151.861 73.8688C151.861 73.4556 151.999 73.1068 152.285 72.817C152.566 72.5326 152.911 72.3877 153.325 72.3877C153.717 72.3877 154.057 72.5326 154.343 72.817C154.64 73.1068 154.789 73.4556 154.789 73.8688ZM154.365 77.7113V88.8739H152.285V77.7113H154.365Z" fill="#747474"/>
<path d="M161.35 89.2391C159.705 89.2391 158.347 88.6756 157.276 87.5433C156.215 86.4002 155.684 84.9834 155.684 83.2929C155.684 81.5756 156.215 80.1588 157.276 79.0426C158.347 77.9156 159.705 77.3467 161.35 77.3467C162.48 77.3467 163.461 77.6365 164.299 78.2054C165.132 78.7796 165.764 79.5685 166.188 80.5667L164.299 81.361C163.716 79.9603 162.692 79.2573 161.223 79.2573C160.273 79.2573 159.451 79.6436 158.761 80.4164C158.082 81.1892 157.742 82.1498 157.742 83.2929C157.742 84.4414 158.082 85.3966 158.761 86.1694C159.451 86.9422 160.273 87.3286 161.223 87.3286C162.735 87.3286 163.796 86.631 164.406 85.2249L166.252 86.0192C165.854 87.0227 165.223 87.8116 164.363 88.3805C163.498 88.9493 162.496 89.2391 161.35 89.2391Z" fill="#747474"/>
<path d="M176.5 85.783C176.5 86.7598 176.076 87.5808 175.227 88.2517C174.389 88.9064 173.338 89.2391 172.065 89.2391C170.962 89.2391 169.986 88.944 169.137 88.359C168.299 87.774 167.699 87.0013 167.333 86.0406L169.179 85.2464C169.46 85.9226 169.858 86.4431 170.368 86.8134C170.887 87.1891 171.455 87.3715 172.065 87.3715C172.728 87.3715 173.28 87.232 173.72 86.9422C174.171 86.6578 174.399 86.3143 174.399 85.9118C174.399 85.1981 173.853 84.6775 172.765 84.3448L170.877 83.8725C168.723 83.3144 167.651 82.2625 167.651 80.717C167.651 79.7027 168.06 78.887 168.882 78.2698C169.699 77.658 170.749 77.3467 172.023 77.3467C172.999 77.3467 173.879 77.5829 174.675 78.0551C175.466 78.5274 176.017 79.1607 176.33 79.9442L174.484 80.717C174.272 80.2447 173.922 79.8798 173.444 79.6222C172.978 79.3538 172.452 79.2143 171.874 79.2143C171.333 79.2143 170.845 79.3538 170.41 79.6222C169.986 79.8959 169.773 80.234 169.773 80.6311C169.773 81.2644 170.368 81.7205 171.556 82.0049L173.211 82.4343C175.402 82.9817 176.5 84.0979 176.5 85.783Z" fill="#747474"/>
<path d="M69.9841 52.291V86.8683C69.9841 90.7403 72.6221 92.8932 75.422 92.8932C78.0115 92.8932 80.8599 91.0595 80.8599 86.8683V52.5529C80.8599 49.0084 78.2704 46.79 75.422 46.79C72.5736 46.79 69.9841 49.2376 69.9841 52.291Z" fill="#F8AB00"/>
<path d="M55.7419 69.8417V86.8685C55.7419 90.7404 58.38 92.8933 61.1798 92.8933C63.7693 92.8933 66.6177 91.0597 66.6177 86.8685V70.1037C66.6177 66.5592 64.0282 64.3408 61.1798 64.3408C58.3314 64.3408 55.7419 66.7884 55.7419 69.8417Z" fill="#E37300"/>
<path d="M52.3757 87.3925C52.3757 90.4295 49.94 92.8935 46.9379 92.8935C43.9357 92.8935 41.5 90.4295 41.5 87.3925C41.5 84.3555 43.9357 81.8916 46.9379 81.8916C49.94 81.8916 52.3757 84.3555 52.3757 87.3925Z" fill="#E37300"/>
</g>
</g>
</g>
</g>
<defs>
<clipPath id="clip0_1_1075">
<rect width="135" height="47" fill="white" transform="translate(41.5 46.79)"/>
</clipPath>
<clipPath id="clip1_1_1075">
<rect width="135" height="47" fill="white" transform="translate(41.5 46.79)"/>
</clipPath>
<clipPath id="clip2_1_1075">
<rect width="135" height="47" fill="white" transform="translate(41.5 46.79)"/>
</clipPath>
</defs>
</svg>
