<svg width="218" height="141" viewBox="0 0 218 141" fill="none" xmlns="http://www.w3.org/2000/svg">
<rect x="0.5" y="0.290039" width="217" height="140" rx="70" fill="#635BFF"/>
<g clip-path="url(#clip0_1_1030)">
<g clip-path="url(#clip1_1_1030)">
<g clip-path="url(#clip2_1_1030)">
<path fill-rule="evenodd" clip-rule="evenodd" d="M160.792 70.8535C160.792 63.2253 157.2 57.2062 150.334 57.2062C143.439 57.2062 139.268 63.2253 139.268 70.7939C139.268 79.7631 144.193 84.2924 151.261 84.2924C154.709 84.2924 157.316 83.4878 159.286 82.3555V76.3959C157.316 77.4091 155.056 78.0348 152.188 78.0348C149.378 78.0348 146.887 77.0217 146.568 73.5055H160.735C160.735 73.1182 160.792 71.5687 160.792 70.8535ZM146.481 68.0227C146.481 64.6556 148.48 63.2551 150.305 63.2551C152.072 63.2551 153.955 64.6556 153.955 68.0227H146.481ZM128.085 57.2062C125.246 57.2062 123.421 58.5768 122.407 59.5304L122.03 57.6829H115.657V92.4272L122.899 90.8479L122.928 82.4151C123.971 83.1898 125.507 84.2924 128.056 84.2924C133.242 84.2924 137.964 80.0015 137.964 70.5556C137.935 61.9142 133.155 57.2062 128.085 57.2062ZM126.347 77.7368C124.638 77.7368 123.624 77.1111 122.928 76.3363L122.899 65.2813C123.653 64.4172 124.696 63.8212 126.347 63.8212C128.983 63.8212 130.808 66.8606 130.808 70.7641C130.808 74.757 129.012 77.7368 126.347 77.7368ZM105.691 55.4481L112.963 53.839V47.79L105.691 49.3693V55.4481ZM105.691 57.7127H112.963V83.7858H105.691V57.7127ZM97.8983 59.9177L97.4348 57.7127H91.1772V83.7858H98.4198V66.1157C100.129 63.8212 103.026 64.2384 103.924 64.5662V57.7127C102.997 57.3551 99.6075 56.6996 97.8983 59.9177ZM83.4132 51.2466L76.3445 52.7961L76.3156 76.6641C76.3156 81.0742 79.5312 84.3222 83.8188 84.3222C86.1944 84.3222 87.9326 83.8752 88.8886 83.3388V77.2899C87.9616 77.6772 83.3843 79.0479 83.3843 74.6379V64.0596H88.8886V57.7127H83.3843L83.4132 51.2466ZM63.8294 65.2813C63.8294 64.1192 64.7565 63.6723 66.2919 63.6723C68.4936 63.6723 71.2748 64.3576 73.4765 65.5793V58.5768C71.072 57.5935 68.6964 57.2062 66.2919 57.2062C60.411 57.2062 56.5 60.3647 56.5 65.6389C56.5 73.8631 67.5086 72.552 67.5086 76.098C67.5086 77.4687 66.3498 77.9156 64.7275 77.9156C62.323 77.9156 59.2522 76.9025 56.8187 75.5318V82.6237C59.5129 83.8156 62.2361 84.3222 64.7275 84.3222C70.7533 84.3222 74.896 81.253 74.896 75.9192C74.8671 67.0394 63.8294 68.6187 63.8294 65.2813Z" fill="white"/>
</g>
</g>
</g>
<defs>
<clipPath id="clip0_1_1030">
<rect width="105" height="45" fill="white" transform="translate(56.5 47.79)"/>
</clipPath>
<clipPath id="clip1_1_1030">
<rect width="105" height="45" fill="white" transform="translate(56.5 47.79)"/>
</clipPath>
<clipPath id="clip2_1_1030">
<rect width="105" height="45" fill="white" transform="translate(56.5 47.79)"/>
</clipPath>
</defs>
</svg>
