<svg width="218" height="141" viewBox="0 0 218 141" fill="none" xmlns="http://www.w3.org/2000/svg">
<rect x="0.5" y="0.290039" width="217" height="140" rx="70" fill="#C9E8F5"/>
<g clip-path="url(#clip0_1_1036)">
<g clip-path="url(#clip1_1_1036)">
<g clip-path="url(#clip2_1_1036)">
<path d="M67.5128 52.29H43.9211C40.6506 52.29 38 54.9406 38 58.2111V81.8028C38 85.0732 40.6506 87.7238 43.9211 87.7238H67.5128C70.7832 87.7238 73.4338 85.0732 73.4338 81.8028V58.2111C73.4338 54.9406 70.7832 52.29 67.5128 52.29ZM66.9926 79.4122C66.9926 80.4454 66.1554 81.2826 65.1222 81.2826H46.3116C45.2784 81.2826 44.4412 80.4454 44.4412 79.4122V60.6016C44.4412 59.5685 45.2784 58.7313 46.3116 58.7313H65.1222C66.1554 58.7313 66.9926 59.5685 66.9926 60.6016V79.4122ZM51.9584 74.8165C51.3634 74.8165 50.886 74.3355 50.886 73.7405V66.2305C50.886 65.6356 51.3634 65.1511 51.9584 65.1511H59.479C60.0704 65.1511 60.5514 65.632 60.5514 66.2305V73.737C60.5514 74.3319 60.0704 74.8129 59.479 74.8129H51.9584V74.8165ZM82.8285 74.3034H86.6975C86.8899 76.4945 88.3755 78.2045 91.3716 78.2045C94.0472 78.2045 95.6931 76.8828 95.6931 74.8842C95.6931 73.0138 94.4034 72.1766 92.0806 71.6279L89.0809 70.9831C85.8246 70.2741 83.3736 68.1793 83.3736 64.7592C83.3736 60.9864 86.726 58.4071 91.0795 58.4071C95.6895 58.4071 98.6572 60.8261 98.9137 64.4029H95.173C94.7276 62.7285 93.3382 61.731 91.0831 61.731C88.6961 61.731 87.0537 63.0206 87.0537 64.6665C87.0537 66.3125 88.4717 67.31 90.9227 67.8587L93.8904 68.5035C97.1466 69.2125 99.3697 71.179 99.3697 74.6276C99.3697 79.0132 96.0814 81.6246 91.3752 81.6246C86.0847 81.6211 83.1527 78.7532 82.8285 74.3034ZM113.211 87.7238V81.3076L113.464 78.4931H113.211C112.323 80.5167 110.46 81.6246 107.931 81.6246C103.852 81.6246 100.816 78.3043 100.816 73.2133C100.816 68.1223 103.852 64.8019 107.931 64.8019C110.428 64.8019 112.199 65.9705 113.211 67.8052H113.464V65.1154H116.816V87.7238H113.211ZM113.335 73.2097C113.335 69.9535 111.344 68.0546 108.907 68.0546C106.47 68.0546 104.479 69.9535 104.479 73.2097C104.479 76.466 106.47 78.3648 108.907 78.3648C111.344 78.3648 113.335 76.4695 113.335 73.2097ZM119.491 74.8877V65.1154H123.097V74.5706C123.097 77.1322 124.329 78.3648 126.385 78.3648C128.915 78.3648 130.561 76.5621 130.561 73.7477V65.1154H134.166V81.304H130.813V77.9516H130.561C129.77 80.1034 128.031 81.6211 125.345 81.6211C121.483 81.6211 119.491 79.1557 119.491 74.8877ZM136.36 76.783C136.36 73.7477 138.48 71.9771 142.242 71.7562L146.699 71.4712V70.2064C146.699 68.6888 145.591 67.7732 143.632 67.7732C141.829 67.7732 140.753 68.6888 140.468 69.9855H136.863C137.244 66.6972 139.962 64.7984 143.628 64.7984C147.771 64.7984 150.301 66.569 150.301 69.9855V81.304H146.949V78.3007H146.696C145.937 80.2922 144.355 81.6211 141.32 81.6211C138.416 81.6211 136.36 79.6616 136.36 76.783ZM146.703 74.7915V73.9365L143.065 74.1894C141.106 74.3141 140.219 75.0445 140.219 76.498C140.219 77.7307 141.231 78.6178 142.652 78.6178C145.217 78.6178 146.703 76.9754 146.703 74.7915ZM152.991 81.3076V65.1154H156.343V68.2149H156.596C157.07 66.0952 158.684 65.1154 161.085 65.1154H162.731V68.3717H160.675C158.335 68.3717 156.596 69.8894 156.596 72.768V81.304H152.991V81.3076ZM179.226 73.8759H166.924C167.113 76.8472 169.201 78.5252 171.509 78.5252C173.469 78.5252 174.701 77.7342 175.4 76.4054H178.973C177.993 79.6937 175.115 81.6211 171.477 81.6211C166.703 81.6211 163.351 78.0478 163.351 73.2097C163.351 68.3717 166.796 64.7984 171.509 64.7984C176.251 64.7984 179.351 68.0546 179.351 72.1017C179.354 72.8962 179.29 73.3059 179.226 73.8759ZM175.781 71.3785C175.656 69.1341 173.789 67.6164 171.513 67.6164C169.361 67.6164 167.562 68.9773 167.117 71.3785H175.781Z" fill="#1A1A1A"/>
</g>
</g>
</g>
<defs>
<clipPath id="clip0_1_1036">
<rect width="142" height="36" fill="white" transform="translate(38 52.29)"/>
</clipPath>
<clipPath id="clip1_1_1036">
<rect width="142" height="36" fill="white" transform="translate(38 52.29)"/>
</clipPath>
<clipPath id="clip2_1_1036">
<rect width="142" height="36" fill="white" transform="translate(38 52.29)"/>
</clipPath>
</defs>
</svg>
