<svg width="218" height="141" viewBox="0 0 218 141" fill="none" xmlns="http://www.w3.org/2000/svg">
<rect x="0.5" y="0.290039" width="217" height="140" rx="70" fill="#201515"/>
<g clip-path="url(#clip0_1_1042)">
<g clip-path="url(#clip1_1_1042)">
<g clip-path="url(#clip2_1_1042)">
<mask id="mask0_1_1042" style="mask-type:luminance" maskUnits="userSpaceOnUse" x="44" y="48" width="130" height="36">
<path d="M174 48.79H44V83.79H174V48.79Z" fill="white"/>
</mask>
<g mask="url(#mask0_1_1042)">
<g filter="url(#filter0_d_1_1042)">
<path d="M74.5277 72.6827L74.5095 72.6253L86.0683 62.1511V57.1045H67.524V62.1511H78.6006L78.6188 62.1995L67.1729 72.6827V77.7295H86.2544V72.6827H74.5277Z" fill="#FFFDF9"/>
<path d="M97.637 56.624C95.498 56.624 93.7547 56.9434 92.4071 57.582C91.1521 58.1386 90.0946 59.0556 89.3724 60.2141C88.6815 61.3802 88.2476 62.6779 88.0994 64.0217L93.7261 64.8045C93.9296 63.6178 94.3368 62.7767 94.9473 62.2811C95.6415 61.7628 96.4969 61.5008 97.3653 61.5407C98.5072 61.5407 99.3356 61.8429 99.8506 62.4473C100.361 63.0517 100.62 63.8888 100.62 64.9918V65.5418H95.2099C92.456 65.5418 90.4776 66.1462 89.2749 67.355C88.0718 68.5638 87.4715 70.1594 87.4736 72.1418C87.4736 74.1725 88.0739 75.6836 89.2749 76.6747C90.4755 77.666 91.9859 78.1586 93.8056 78.1524C96.0627 78.1524 97.799 77.3839 99.0139 75.8468C99.7315 74.902 100.244 73.8207 100.519 72.6706H100.724L101.499 77.7172H106.598V64.9374C106.598 62.2962 105.895 60.2504 104.488 58.7998C103.082 57.3493 100.798 56.624 97.637 56.624ZM99.4201 72.3775C98.6109 73.0453 97.5517 73.3778 96.2327 73.3778C95.1457 73.3778 94.3906 73.1894 93.9673 72.8127C93.7612 72.6344 93.5968 72.4134 93.4866 72.1653C93.3764 71.9173 93.3225 71.6482 93.3293 71.3772C93.3171 71.1217 93.3579 70.8664 93.4486 70.6269C93.5394 70.3874 93.6785 70.1687 93.8574 69.9841C94.0508 69.8045 94.2791 69.6656 94.5284 69.5757C94.7778 69.4859 95.0427 69.4469 95.3076 69.4613H100.629V69.8088C100.64 70.3001 100.537 70.7872 100.327 71.2325C100.117 71.6779 99.8069 72.0697 99.4201 72.3775Z" fill="#FFFDF9"/>
<path d="M137.425 57.1045H131.402V77.7323H137.425V57.1045Z" fill="#FFFDF9"/>
<path d="M172.988 57.1045C171.287 57.1045 169.946 57.6988 168.965 58.8874C168.26 59.7416 167.725 61.0038 167.359 62.6739H167.181L166.394 57.1045H161.249V77.7295H167.273V67.1525C167.273 65.8188 167.589 64.7964 168.22 64.0852C168.85 63.374 170.015 63.0184 171.712 63.0184H173.999V57.1045H172.988Z" fill="#FFFDF9"/>
<path d="M155.278 57.779C153.871 56.951 152.098 56.538 149.956 56.54C146.586 56.54 143.948 57.49 142.043 59.3897C140.138 61.2895 139.185 63.9086 139.185 67.2468C139.137 69.2651 139.582 71.265 140.483 73.0762C141.307 74.6902 142.592 76.0297 144.177 76.9291C145.773 77.842 147.671 78.2993 149.871 78.3011C151.774 78.3011 153.364 78.011 154.64 77.431C155.84 76.9098 156.884 76.093 157.674 75.0587C158.427 74.0432 158.986 72.9002 159.323 71.6861L154.133 70.2476C153.915 71.0372 153.494 71.7575 152.912 72.3388C152.325 72.9191 151.343 73.2092 149.965 73.2092C148.327 73.2092 147.106 72.7448 146.302 71.816C145.719 71.1452 145.352 70.1872 145.19 68.9452H159.403C159.461 68.365 159.491 67.8784 159.491 67.4856V66.2012C159.525 64.4758 159.165 62.7651 158.438 61.1969C157.757 59.7682 156.655 58.5769 155.278 57.779ZM149.782 61.4567C152.225 61.4567 153.61 62.6464 153.937 65.0257H145.297C145.435 64.2318 145.767 63.4835 146.265 62.8469C147.057 61.9181 148.229 61.4547 149.782 61.4567Z" fill="#FFFDF9"/>
<path d="M134.478 48.792C134.025 48.7767 133.573 48.8518 133.15 49.0127C132.727 49.1736 132.341 49.4171 132.014 49.7288C131.693 50.0434 131.441 50.4207 131.274 50.8369C131.107 51.2531 131.03 51.6989 131.047 52.1463C131.03 52.5965 131.108 53.0453 131.275 53.4645C131.442 53.8837 131.694 54.2644 132.016 54.5828C132.338 54.9012 132.723 55.1506 133.146 55.3152C133.57 55.4799 134.023 55.5564 134.478 55.5399C134.93 55.5568 135.381 55.4804 135.801 55.3155C136.222 55.1505 136.603 54.9007 136.921 54.582C137.236 54.2599 137.482 53.8781 137.644 53.4595C137.806 53.041 137.881 52.5943 137.864 52.1463C137.885 51.701 137.812 51.2562 137.649 50.8405C137.486 50.4248 137.238 50.0472 136.92 49.7318C136.601 49.4164 136.22 49.1702 135.8 49.0089C135.38 48.8476 134.931 48.7748 134.481 48.795L134.478 48.792Z" fill="#FFFDF9"/>
<path d="M122.036 56.54C119.985 56.54 118.336 57.1777 117.091 58.4529C116.168 59.3977 115.492 60.808 115.06 62.6836H114.868L114.08 57.1142H108.936V83.6592H114.959V72.7256H115.179C115.363 73.4547 115.621 74.1634 115.949 74.841C116.458 75.9447 117.294 76.8699 118.345 77.4943C119.436 78.0831 120.664 78.3762 121.905 78.3435C124.427 78.3435 126.347 77.3715 127.666 75.4272C128.985 73.4831 129.645 70.7704 129.645 67.2891C129.645 63.9267 129.007 61.2946 127.73 59.3927C126.454 57.491 124.556 56.54 122.036 56.54ZM122.647 71.4866C121.945 72.494 120.846 72.9976 119.35 72.9976C118.733 73.0258 118.118 72.9081 117.557 72.6543C116.995 72.4005 116.502 72.0178 116.12 71.538C115.34 70.569 114.951 69.2423 114.953 67.5581V67.1652C114.953 65.4548 115.342 64.1453 116.12 63.2367C116.897 62.3281 117.974 61.8788 119.35 61.8889C120.872 61.8889 121.978 62.3673 122.668 63.3243C123.358 64.2813 123.703 65.616 123.703 67.3284C123.708 69.0993 123.357 70.4853 122.653 71.4866H122.647Z" fill="#FFFDF9"/>
<path d="M64.8401 72.6826H44V77.7354H64.8401V72.6826Z" fill="#FF4F00"/>
</g>
</g>
</g>
</g>
</g>
<defs>
<filter id="filter0_d_1_1042" x="40" y="48.79" width="137.999" height="42.8691" filterUnits="userSpaceOnUse" color-interpolation-filters="sRGB">
<feFlood flood-opacity="0" result="BackgroundImageFix"/>
<feColorMatrix in="SourceAlpha" type="matrix" values="0 0 0 0 0 0 0 0 0 0 0 0 0 0 0 0 0 0 127 0" result="hardAlpha"/>
<feOffset dy="4"/>
<feGaussianBlur stdDeviation="2"/>
<feComposite in2="hardAlpha" operator="out"/>
<feColorMatrix type="matrix" values="0 0 0 0 0 0 0 0 0 0 0 0 0 0 0 0 0 0 0.25 0"/>
<feBlend mode="normal" in2="BackgroundImageFix" result="effect1_dropShadow_1_1042"/>
<feBlend mode="normal" in="SourceGraphic" in2="effect1_dropShadow_1_1042" result="shape"/>
</filter>
<clipPath id="clip0_1_1042">
<rect width="138" height="43" fill="white" transform="translate(40 48.79)"/>
</clipPath>
<clipPath id="clip1_1_1042">
<rect width="138" height="43" fill="white" transform="translate(40 48.79)"/>
</clipPath>
<clipPath id="clip2_1_1042">
<rect width="138" height="43" fill="white" transform="translate(40 48.79)"/>
</clipPath>
</defs>
</svg>
