<svg width="168" height="32" viewBox="0 0 168 32" fill="none" xmlns="http://www.w3.org/2000/svg">
<g clip-path="url(#clip0_1_1125)">
<path d="M8.83569 17.4635C7.60129 17.4635 7.05989 17.1828 7.01658 15.9739C6.5618 16.8806 5.45734 17.5498 3.72485 17.5498C1.40765 17.5498 0 16.3409 0 14.3117C0 12.1745 1.75414 11.0303 3.85479 11.0303C5.00256 11.0303 5.82549 11.2462 6.41021 11.6779L6.34524 11.0303C6.15033 8.87147 5.65224 7.59779 4.22294 7.59779C2.29555 7.59779 3.16179 10.2315 1.34268 10.2315C0.649683 10.2315 0.151593 9.82134 0.151593 9.13053C0.151593 7.7489 1.92739 6.75586 4.2446 6.75586C6.99492 6.75586 8.77072 7.83525 9.03059 10.5337L9.48537 15.2615C9.61531 16.6863 10.6765 16.1682 10.6765 16.9022C10.6981 17.334 9.78856 17.4635 8.83569 17.4635ZM2.79364 13.9878C2.79364 15.2831 3.42166 16.2977 4.82931 16.2977C5.80383 16.2977 6.67008 15.6501 6.69173 14.6571L6.60511 13.7072C6.45352 12.6278 5.69555 12.0233 4.65606 12.0233C3.44332 12.0233 2.79364 12.8005 2.79364 13.9878Z" fill="black"/>
<path d="M15.7509 17.5498C12.6324 17.5498 10.6617 15.3047 10.6617 12.2824C10.6617 9.001 13.0006 6.75586 15.8592 6.75586C18.3713 6.75586 20.0821 8.13748 20.0821 9.45435C20.0821 10.1667 19.5624 10.6633 18.7395 10.6417C16.877 10.5985 17.57 7.64096 15.4694 7.66255C14.17 7.66255 13.3471 8.72036 13.3471 10.9224C13.3471 13.8367 14.7981 15.6717 16.8121 15.6717C18.1981 15.6717 18.9993 15.0025 19.5407 13.9447C19.8006 13.4697 20.3204 13.6856 20.2554 14.139C20.0388 15.8444 18.4579 17.5498 15.7509 17.5498Z" fill="black"/>
<path d="M25.4302 17.5501C23.1563 17.5501 21.5104 16.4276 21.5104 13.7075V9.19561C21.5104 8.28892 20.6875 8.1378 20.6875 7.68446V7.61969C20.6875 7.4254 20.8391 7.27429 21.0773 7.23111L23.5028 6.79936C23.9359 6.713 24.2174 6.77777 24.2174 7.16635V13.3405C24.2174 15.2402 24.9104 16.039 26.2315 16.039C27.4659 16.039 28.462 15.1107 28.462 13.6211V9.19561C28.462 8.28892 27.6174 8.1378 27.6174 7.68446V7.61969C27.6174 7.44699 27.7474 7.27429 28.0073 7.23111L30.4544 6.79936C30.9308 6.73459 31.1907 6.79935 31.1907 7.14476V15.2187C31.1907 16.8809 32.2735 16.1253 32.2735 16.8593C32.2735 17.3127 31.6671 17.4638 30.5627 17.4638C29.22 17.4638 28.7869 17.0752 28.7436 15.672C28.0939 16.8593 26.9028 17.5501 25.4302 17.5501Z" fill="black"/>
<path d="M33.5096 17.3341C33.2281 17.3341 33.0332 17.2045 33.0332 16.9887V16.9023C33.0332 16.4058 33.8561 16.2978 33.8561 15.4343V10.0158C33.8561 9.10907 33.0332 8.8716 33.0332 8.46143V8.39667C33.0332 8.24555 33.1414 8.13761 33.4446 7.9865L35.7618 6.84234C36.2816 6.60487 36.5631 6.86393 36.5631 7.23092V15.4343C36.5631 16.2978 37.386 16.4058 37.386 16.9023V16.9887C37.386 17.2045 37.1911 17.3341 36.9096 17.3341H33.5096ZM33.423 3.60416C33.423 2.6327 34.1593 1.94189 35.1988 1.94189C36.2383 1.94189 36.9746 2.6327 36.9746 3.60416C36.9746 4.5972 36.2383 5.26643 35.1988 5.26643C34.1593 5.26643 33.423 4.5972 33.423 3.60416Z" fill="black"/>
<path d="M42.3991 17.55C40.5583 17.55 39.3889 16.4059 39.3889 14.2471V8.09457H38.1112C37.873 8.09457 37.7214 7.92187 37.7214 7.70599V7.38217C37.7214 7.12311 37.8513 6.972 38.1112 6.972H38.5226C40.1252 6.972 40.6883 6.0869 40.8832 4.8348C40.9265 4.53257 41.0997 4.35986 41.3379 4.35986H41.6411C41.9443 4.35986 42.0959 4.53257 42.0959 4.8348V6.972H44.8029C45.0195 6.972 45.1927 7.1447 45.1927 7.38217V7.70599C45.1927 7.92187 45.0195 8.09457 44.8029 8.09457H42.0959V14.3119C42.0959 15.3049 42.6156 15.8446 43.3953 15.8446C44.3698 15.8446 44.608 15.1106 44.8029 14.463C44.8462 14.2471 45.0195 14.1607 45.1711 14.1607C45.366 14.1607 45.5609 14.2903 45.5609 14.5062C45.5609 15.9741 44.4348 17.55 42.3991 17.55Z" fill="black"/>
<path d="M48.1374 21.9753C46.6648 21.9753 45.582 21.1333 45.582 20.0108C45.582 19.2984 46.0151 18.845 46.7081 18.845C48.1158 18.845 47.726 20.7016 48.8304 20.7016C49.6534 20.7016 50.2164 19.9892 51.1693 17.7656L47.1413 8.93618C46.6648 7.87837 46.0151 7.89996 46.0151 7.42502V7.33867C46.0151 7.12279 46.1884 6.97168 46.4266 6.97168H50.0648C50.2814 6.97168 50.433 7.10121 50.433 7.31708V7.38185C50.433 7.89996 49.6534 7.92155 50.0865 9.02253L52.4903 14.9376L54.8075 9.21682C55.284 8.07266 54.1362 8.0079 54.1362 7.38185V7.31708C54.1362 7.10121 54.2878 6.97168 54.5476 6.97168H56.9948C57.233 6.97168 57.4063 7.10121 57.4063 7.2955V7.38185C57.4063 7.89996 56.6699 8.09425 56.3018 8.93618L52.0139 18.8018C51.0394 21.0686 49.9566 21.9753 48.1374 21.9753Z" fill="black"/>
<path d="M72.3223 17.5292C69.507 17.5292 67.8828 16.4282 67.8828 15.1546C67.8828 14.4422 68.3592 14.0104 69.0089 14.0104C70.6764 14.0104 70.0917 16.5578 72.7338 16.5578C73.9032 16.5578 74.7045 16.1044 74.7045 15.1977C74.7045 12.4561 68.1427 14.1183 68.1427 10.103C68.1427 8.0737 69.9835 6.75684 72.5605 6.75684C75.2242 6.75684 76.7618 7.81465 76.7618 9.19627C76.7618 9.77914 76.2854 10.2325 75.7007 10.2325C73.9032 10.2325 74.5312 7.74988 72.214 7.74988C71.2179 7.74988 70.4382 8.16005 70.4382 9.10992C70.4382 11.7221 77.0217 10.1677 77.0217 14.291C77.0217 16.2124 75.1376 17.5292 72.3223 17.5292Z" fill="black"/>
<path d="M83.225 17.5508C80.1065 17.5508 78.1358 15.3057 78.1358 12.2834C78.1358 9.00198 80.4747 6.75684 83.3333 6.75684C85.8454 6.75684 87.5562 8.13846 87.5562 9.45533C87.5562 10.1677 87.0364 10.6642 86.2135 10.6427C84.3511 10.5995 85.0441 7.64194 82.9434 7.66353C81.6441 7.66353 80.8211 8.72134 80.8211 10.9233C80.8211 13.8377 82.2721 15.6727 84.2861 15.6727C85.6721 15.6727 86.4734 15.0034 87.0148 13.9456C87.2747 13.4707 87.7944 13.6866 87.7294 14.1399C87.5129 15.8454 85.932 17.5508 83.225 17.5508Z" fill="black"/>
<path d="M96.1743 17.3567C95.8711 17.3567 95.6979 17.2272 95.6979 17.0113V16.925C95.6979 16.4284 96.4991 16.3205 96.4342 15.4354L96.131 11.2042C96.0227 9.39081 95.3081 8.24664 94.052 8.24664C92.7743 8.24664 91.9081 9.28286 91.9081 10.8588V15.457C91.9081 16.3205 92.8176 16.4069 92.8176 16.925V16.9897C92.8176 17.2056 92.6227 17.3351 92.3195 17.3351H88.7679C88.4864 17.3351 88.3131 17.2056 88.3131 16.9897V16.925C88.3131 16.4069 89.201 16.3205 89.201 15.457V4.2313C89.201 3.30302 88.2482 3.23825 88.2482 2.78491V2.72014C88.2482 2.50427 88.3998 2.35315 88.638 2.24521L91.1284 1.209C91.5832 1.01471 91.8647 1.16582 91.8647 1.57599L91.8431 8.39776C92.4928 7.38313 93.6189 6.75708 94.9616 6.75708C97.1055 6.75708 98.6214 8.00918 98.8813 11.3985L99.1629 15.4354C99.2278 16.3205 100.007 16.4284 100.007 16.925V17.0113C100.007 17.2272 99.8125 17.3567 99.5093 17.3567H96.1743Z" fill="black"/>
<path d="M105.225 17.5508C102.431 17.5508 100.265 15.7374 100.265 12.4345C100.265 9.34739 102.496 6.75684 105.398 6.75684C108.17 6.75684 109.448 8.52705 109.448 9.71438C109.448 10.4484 109.123 11.0097 108.04 11.3335L103.059 12.8015C103.492 14.4637 104.618 15.6727 106.264 15.6727C107.758 15.6727 108.56 14.9387 109.058 14.1183C109.253 13.7945 109.816 13.924 109.772 14.3558C109.621 15.6727 107.997 17.5508 105.225 17.5508ZM102.843 11.096C102.843 11.2903 102.843 11.4846 102.864 11.6789L105.723 10.7938C106.546 10.5347 106.784 10.2541 106.784 9.77914C106.784 8.65657 106.134 7.62035 105.051 7.62035C103.687 7.62035 102.843 9.04516 102.843 11.096Z" fill="black"/>
<path d="M115.064 17.5509C112.53 17.5509 110.343 15.5217 110.343 12.2835C110.343 8.91576 112.682 6.75696 115.346 6.75696C116.58 6.75696 117.576 7.14554 118.291 7.85794V3.97212C118.291 3.00067 117.273 2.95749 117.273 2.46097V2.41779C117.273 2.24509 117.403 2.0508 117.663 1.96445L120.132 1.18729C120.673 1.01459 120.933 1.14411 120.933 1.59746V15.4569C120.933 16.3204 121.756 16.4715 121.756 16.9465V17.0112C121.756 17.2271 121.626 17.335 121.366 17.335H118.984C118.702 17.335 118.551 17.1623 118.529 16.9033L118.443 15.6512C117.836 16.8169 116.58 17.5509 115.064 17.5509ZM113.072 11.4631C113.072 14.0105 114.133 15.975 116.06 15.975C117.251 15.975 118.291 15.0683 118.291 13.5572V10.8803C118.291 9.04528 117.035 7.87953 115.671 7.87953C113.916 7.87953 113.072 9.34752 113.072 11.4631Z" fill="black"/>
<path d="M126.931 17.5511C124.657 17.5511 123.012 16.4285 123.012 13.7085V9.19659C123.012 8.2899 122.189 8.13878 122.189 7.68544V7.62067C122.189 7.42638 122.34 7.27527 122.579 7.23209L125.004 6.80033C125.437 6.71398 125.719 6.77875 125.719 7.16733V13.3415C125.719 15.2412 126.412 16.04 127.733 16.04C128.967 16.04 129.963 15.1117 129.963 13.6221V9.19659C129.963 8.2899 129.119 8.13878 129.119 7.68544V7.62067C129.119 7.44797 129.249 7.27527 129.508 7.23209L131.956 6.80033C132.432 6.73557 132.692 6.80033 132.692 7.14574V15.2196C132.692 16.8819 133.775 16.1263 133.775 16.8603C133.775 17.3136 133.168 17.4648 132.064 17.4648C130.721 17.4648 130.288 17.0762 130.245 15.673C129.595 16.8603 128.404 17.5511 126.931 17.5511Z" fill="black"/>
<path d="M134.946 17.335C134.664 17.335 134.491 17.2055 134.491 16.9896V16.9249C134.491 16.4068 135.292 16.3204 135.292 15.4569V4.33917C135.292 3.41089 134.491 3.23818 134.491 2.82801V2.76325C134.491 2.52578 134.686 2.43943 134.881 2.35308L137.22 1.23051C137.739 0.971454 138.021 1.2521 138.021 1.57592V15.4569C138.021 16.3204 138.931 16.4068 138.931 16.9249V16.9896C138.931 17.2055 138.736 17.335 138.432 17.335H134.946Z" fill="black"/>
<path d="M140.417 17.335C140.136 17.335 139.941 17.2055 139.941 16.9896V16.9033C139.941 16.4068 140.764 16.2988 140.764 15.4353V10.0167C140.764 9.11005 139.941 8.87258 139.941 8.46241V8.39765C139.941 8.24653 140.049 8.13859 140.352 7.98748L142.669 6.84332C143.189 6.60585 143.471 6.86491 143.471 7.2319V15.4353C143.471 16.2988 144.294 16.4068 144.294 16.9033V16.9896C144.294 17.2055 144.099 17.335 143.817 17.335H140.417ZM140.331 3.60514C140.331 2.63368 141.067 1.94287 142.106 1.94287C143.146 1.94287 143.882 2.63368 143.882 3.60514C143.882 4.59818 143.146 5.26741 142.106 5.26741C141.067 5.26741 140.331 4.59818 140.331 3.60514Z" fill="black"/>
<path d="M153.097 17.3349C152.793 17.3349 152.62 17.2054 152.62 16.9895V16.9032C152.62 16.4067 153.421 16.2987 153.356 15.4136L153.075 11.096C152.923 9.08833 152.23 8.33276 150.974 8.33276C149.697 8.33276 148.83 9.30421 148.83 10.8369V15.4352C148.83 16.2987 149.74 16.4067 149.74 16.9032V16.9895C149.74 17.2054 149.567 17.3349 149.263 17.3349H145.712C145.409 17.3349 145.235 17.2054 145.235 16.9895V16.9032C145.235 16.4067 146.123 16.2987 146.123 15.4352V9.90867C146.123 8.93722 145.084 8.89404 145.084 8.39752V8.33276C145.084 8.16005 145.214 8.05211 145.495 7.92259L147.769 6.84319C148.246 6.62731 148.462 6.86478 148.462 7.25336V9.00198C149.025 7.62036 150.325 6.75684 151.884 6.75684C154.028 6.75684 155.565 8.00894 155.782 11.1608L156.107 15.4136C156.172 16.2987 156.93 16.4067 156.93 16.9032V16.9895C156.93 17.2054 156.735 17.3349 156.453 17.3349H153.097Z" fill="black"/>
<path d="M162.336 15.4784C159.348 15.4784 157.42 13.6866 157.42 11.1824C157.42 8.6134 159.456 6.75684 162.445 6.75684C163.852 6.75684 164.394 6.97272 166.797 6.97272C167.75 6.97272 167.815 7.25336 167.815 7.59877C167.815 8.41911 166.841 8.22482 166.083 8.39752C166.949 9.06674 167.469 10.1245 167.469 11.1392C167.469 12.8878 166.494 14.1831 164.957 14.7876C166.711 15.0898 167.837 15.9317 167.837 17.3997C167.837 19.2994 165.606 20.5947 162.488 20.5947C159.153 20.5947 157.334 19.0836 157.334 17.5076C157.334 16.9679 157.68 16.4282 158.438 16.4282C160.192 16.4282 159.586 19.5369 162.618 19.5369C164.35 19.5369 165.087 18.7381 165.087 17.6588C165.087 16.3203 164.004 15.4784 162.336 15.4784ZM160.084 10.3836C160.084 12.4129 160.929 14.4853 162.769 14.4853C164.025 14.4853 164.783 13.4059 164.783 11.8732C164.783 9.84391 163.96 7.77147 162.098 7.77147C160.842 7.77147 160.084 8.82928 160.084 10.3836Z" fill="black"/>
<path d="M62.2938 10.6896C63.3233 10.6896 64.1579 9.85763 64.1579 8.83136C64.1579 7.8051 63.3233 6.97314 62.2938 6.97314C61.2643 6.97314 60.4297 7.8051 60.4297 8.83136C60.4297 9.85763 61.2643 10.6896 62.2938 10.6896Z" fill="black"/>
<path d="M62.2938 17.338C63.3233 17.338 64.1579 16.5061 64.1579 15.4798C64.1579 14.4535 63.3233 13.6216 62.2938 13.6216C61.2643 13.6216 60.4297 14.4535 60.4297 15.4798C60.4297 16.5061 61.2643 17.338 62.2938 17.338Z" fill="black"/>
<path d="M0.830512 30.7117H0V25.9028H3.01395V26.6395H0.830512V27.9054H2.85321V28.6354H0.830512V30.7117Z" fill="black"/>
<path d="M7.42422 30.4773V30.7117H6.61381L5.14702 28.8229H4.6045V30.7117H3.77399V25.9028H5.33455C5.82348 25.9028 6.27892 25.9429 6.6339 26.1841C7.00897 26.4319 7.2032 26.8203 7.2032 27.316C7.2032 28.1867 6.64729 28.6019 6.03781 28.7426L7.42422 30.4773ZM4.6045 26.6194V28.1063H5.33455C5.97083 28.1063 6.37269 27.8853 6.37269 27.3495C6.37269 26.8002 5.97083 26.6194 5.33455 26.6194H4.6045Z" fill="black"/>
<path d="M10.2338 25.8091C11.6872 25.8091 12.6516 26.8472 12.6516 28.314C12.6516 29.7674 11.7207 30.8056 10.2405 30.8056C8.76702 30.8056 7.82935 29.7674 7.82935 28.314C7.82935 26.8539 8.78042 25.8091 10.2338 25.8091ZM10.2271 26.5257C9.26935 26.5257 8.69335 27.2826 8.69335 28.3006C8.69335 29.3254 9.27605 30.0889 10.2338 30.0889C11.1916 30.0889 11.7743 29.3321 11.7743 28.3073C11.7743 27.2692 11.1916 26.5257 10.2271 26.5257Z" fill="black"/>
<path d="M14.2843 28.2068V30.7117H13.4738V25.9028H14.7866L15.6506 28.468C15.7644 28.8028 15.9252 29.332 16.0524 29.7338H16.0658C16.2065 29.332 16.394 28.7426 16.5012 28.4211L17.3652 25.9028H18.6444V30.7117H17.8206V28.2737C17.8206 27.7647 17.8407 27.0213 17.8407 26.6328H17.8206C17.747 26.8739 17.5259 27.5504 17.3049 28.2202L16.461 30.7117H15.6305L14.6191 27.7178C14.4651 27.2557 14.3847 26.9208 14.291 26.5993H14.2709C14.2776 26.9878 14.2843 27.5437 14.2843 28.2068Z" fill="black"/>
<path d="M20.9747 29.4191L21.7918 29.3455C21.8856 29.821 22.2674 30.1157 22.8501 30.1157C23.4261 30.1157 23.7609 29.821 23.7609 29.3856C23.7609 28.9503 23.4194 28.8364 22.8635 28.6824L22.5018 28.5819C21.6445 28.3408 21.1221 27.9523 21.1221 27.1888C21.1221 26.3851 21.7784 25.8091 22.83 25.8091C23.8145 25.8091 24.4173 26.3181 24.5178 27.1017L23.7141 27.1687C23.6136 26.7669 23.3256 26.5324 22.8032 26.5324C22.3142 26.5324 22.0195 26.7869 22.0195 27.1419C22.0195 27.5438 22.3544 27.671 22.9036 27.8452L23.2452 27.9523C24.1092 28.2203 24.6383 28.4882 24.6383 29.3254C24.6383 30.2229 23.8882 30.8189 22.8233 30.8189C21.832 30.8189 21.1288 30.3568 20.9747 29.4191Z" fill="black"/>
<path d="M27.5666 25.8091C29.02 25.8091 29.9845 26.8472 29.9845 28.314C29.9845 29.0642 29.7233 29.6937 29.2745 30.1358L29.9175 30.8926V31.127H29.1004L28.6517 30.5778C28.3369 30.7185 27.9819 30.8056 27.5733 30.8056C26.0998 30.8056 25.1622 29.7674 25.1622 28.314C25.1622 26.8539 26.1132 25.8091 27.5666 25.8091ZM27.5599 26.5257C26.6022 26.5257 26.0262 27.2826 26.0262 28.3006C26.0262 29.3254 26.6089 30.0956 27.5666 30.0956C28.5244 30.0956 29.1071 29.3656 29.1071 28.3073C29.1071 27.2692 28.5244 26.5257 27.5599 26.5257Z" fill="black"/>
<path d="M32.715 30.129C33.3982 30.129 33.8068 29.707 33.8068 28.8363V25.9028H34.6507V28.8564C34.6507 30.2495 33.9206 30.8188 32.715 30.8188C31.5095 30.8188 30.7794 30.2495 30.7794 28.8564V25.9028H31.6233V28.8363C31.6233 29.707 32.0319 30.129 32.715 30.129Z" fill="black"/>
<path d="M35.1786 30.7117V30.4773L36.8865 25.9028H38.1524L39.8402 30.4773V30.7117H39.0097L38.5274 29.3387H36.4445L35.9622 30.7117H35.1786ZM36.9736 27.8585L36.699 28.622H38.2863L38.0251 27.8585C37.8175 27.2624 37.7036 26.9208 37.6098 26.6328H37.4022C37.2951 26.9342 37.2013 27.2155 36.9736 27.8585Z" fill="black"/>
<path d="M44.1633 30.4773V30.7117H43.3529L41.8861 28.8229H41.3436V30.7117H40.5131V25.9028H42.0736C42.5626 25.9028 43.018 25.9429 43.373 26.1841C43.7481 26.4319 43.9423 26.8203 43.9423 27.316C43.9423 28.1867 43.3864 28.6019 42.7769 28.7426L44.1633 30.4773ZM41.3436 26.6194V28.1063H42.0736C42.7099 28.1063 43.1118 27.8853 43.1118 27.3495C43.1118 26.8002 42.7099 26.6194 42.0736 26.6194H41.3436Z" fill="black"/>
<path d="M44.915 30.7117V25.9028H48.0294V26.6395H45.7388V27.892H47.8686V28.622H45.7388V29.9749H48.0763V30.7117H44.915Z" fill="black"/>
<path d="M48.6157 29.4191L49.4328 29.3455C49.5266 29.821 49.9083 30.1157 50.491 30.1157C51.067 30.1157 51.4019 29.821 51.4019 29.3856C51.4019 28.9503 51.0603 28.8364 50.5044 28.6824L50.1428 28.5819C49.2855 28.3408 48.763 27.9523 48.763 27.1888C48.763 26.3851 49.4194 25.8091 50.471 25.8091C51.4555 25.8091 52.0583 26.3181 52.1588 27.1017L51.355 27.1687C51.2546 26.7669 50.9666 26.5324 50.4442 26.5324C49.9552 26.5324 49.6605 26.7869 49.6605 27.1419C49.6605 27.5438 49.9954 27.671 50.5446 27.8452L50.8862 27.9523C51.7502 28.2203 52.2793 28.4882 52.2793 29.3254C52.2793 30.2229 51.5292 30.8189 50.4643 30.8189C49.473 30.8189 48.7697 30.3568 48.6157 29.4191Z" fill="black"/>
<path d="M53.915 30.7117H53.0778V25.9028H54.8325C56.1319 25.9028 56.5739 26.5524 56.5739 27.3896C56.5739 28.3943 55.8841 28.8631 54.7656 28.8631H53.915V30.7117ZM53.915 26.6194V28.1465H54.7187C55.3014 28.1465 55.7367 27.9656 55.7367 27.3896C55.7367 26.7935 55.3081 26.6194 54.7321 26.6194H53.915Z" fill="black"/>
<path d="M56.5405 30.7117V30.4773L58.2484 25.9028H59.5143L61.2021 30.4773V30.7117H60.3716L59.8893 29.3387H57.8064L57.3241 30.7117H56.5405ZM58.3355 27.8585L58.0609 28.622H59.6482L59.387 27.8585C59.1794 27.2624 59.0655 26.9208 58.9718 26.6328H58.7641C58.657 26.9342 58.5632 27.2155 58.3355 27.8585Z" fill="black"/>
<path d="M65.1458 29.3053L65.983 29.4459C65.6883 30.2028 64.9985 30.8056 63.8666 30.8056C62.4333 30.8056 61.5023 29.7473 61.5023 28.314C61.5023 26.8807 62.4333 25.8091 63.88 25.8091C64.9315 25.8091 65.6615 26.3382 65.9562 27.1486L65.1056 27.3161C64.8779 26.8271 64.4493 26.5257 63.8666 26.5257C62.9155 26.5257 62.373 27.3094 62.373 28.314C62.373 29.3254 62.9423 30.0889 63.9 30.0889C64.5229 30.0889 64.9248 29.7406 65.1458 29.3053Z" fill="black"/>
<path d="M66.6889 30.7117V25.9028H69.8034V26.6395H67.5128V27.892H69.6426V28.622H67.5128V29.9749H69.8503V30.7117H66.6889Z" fill="black"/>
</g>
<defs>
<clipPath id="clip0_1_1125">
<rect width="168" height="31" fill="white" transform="translate(0 0.879395)"/>
</clipPath>
</defs>
</svg>
